<?xml version="1.0" encoding="UTF-8"?>
<svg fill="#d6543f" xmlns="http://www.w3.org/2000/svg" id="Layer_1" data-name="Layer 1" viewBox="0 0 24 24">
  <path d="M21.307,5.06c-.265-.183-.602-.23-.902-.122-.099,.035-1.887,.68-3.147,2.288-1.029-1.832-2.283-3.34-4.774-4.713-.299-.166-.665-.166-.964,0-2.485,1.365-3.713,2.834-4.767,4.71-1.261-1.616-3.063-2.252-3.163-2.286-.3-.103-.634-.058-.896,.125-1.594,1.109-1.693,7.275-1.693,7.336,0,5.251,1.197,7.099,1.333,7.292,.117,.166,.282,.292,.473,.362,.173,.064,4.307,1.562,9.194,1.562s9.02-1.498,9.193-1.562c.195-.071,.362-.202,.48-.372,.136-.198,1.326-2.079,1.326-7.282,0-.062-.1-6.228-1.693-7.336Z"/>
</svg>
